<svg width="24" height="24" fill="none" xmlns="http://www.w3.org/2000/svg"><circle cx="12" cy="12" r="12" fill="#F4FBFE"/><path d="M18 13.596v2.773a.667.667 0 01-.019.154.577.577 0 01-.556.477H6.572a.579.579 0 01-.563-.529C6 16.435 6 16.404 6 16.365v-2.773c0-.328.257-.592.567-.592.154 0 .298.067.4.174a.607.607 0 01.166.418v2.22h9.737v-2.22c0-.328.257-.592.567-.592.154 0 .298.067.4.174.099.11.163.26.163.422z" fill="#00A0FF"/><path d="M14.832 11.024l-2.415 2.77c-.002.007-.01.01-.013.015a.546.546 0 01-.318.184l-.03.003c-.019.004-.039.004-.058.004l-.056-.004-.03-.003a.537.537 0 01-.318-.184l-.013-.016-2.414-2.77A.71.71 0 019 10.558c0-.169.056-.338.167-.466a.526.526 0 01.812 0l1.451 1.665.002-6.098c0-.36.259-.658.573-.658.157 0 .301.075.406.191a.7.7 0 01.167.467v6.098l1.451-1.664a.526.526 0 01.813 0 .746.746 0 01-.01.932z" fill="#00A0FF"/></svg>