<svg width="30" height="30" fill="none" xmlns="http://www.w3.org/2000/svg"><circle cx="15" cy="15" r="15" fill="#F4FBFE"/><path d="M11.483 9.701h4.045c.274 0 .497.211.497.471a.479.479 0 01-.408.463l-.089.008h-4.045c-.774 0-1.41.56-1.483 1.276l-.007.136v6.591c0 .734.591 1.337 1.347 1.406l.143.006h6.953c.774 0 1.41-.56 1.483-1.276l.007-.136v-5.223c0-.26.222-.47.496-.47a.49.49 0 01.489.386l.008.085v5.222c0 1.248-1.025 2.27-2.32 2.349l-.163.005h-6.953c-1.316 0-2.394-.971-2.478-2.2L9 18.647v-6.59c0-1.249 1.025-2.27 2.32-2.35l.163-.005h4.045-4.045zm8.677-.346c.435.319.67.825.82 1.54a.9.9 0 01-.133.687l-.075.097-3.856 4.42a.986.986 0 01-.317.24l-.125.05-2.102.685c-.732.239-1.443-.37-1.3-1.065l.027-.1.58-1.801a.918.918 0 01.108-.225l.076-.1 3.856-4.42c.166-.19.402-.31.66-.336.749-.076 1.332-.001 1.781.328zm-.608.745c-.195-.143-.55-.189-1.067-.137l-3.856 4.42-.58 1.8 2.102-.685 3.856-4.419c-.108-.51-.26-.836-.455-.98z" fill="#00A0FF"/></svg>