<svg width="24" height="24" fill="none" xmlns="http://www.w3.org/2000/svg"><circle cx="12" cy="12" r="12" fill="#fff"/><path d="M16.373 7C17.27 7 18 7.689 18 8.538v6.923c0 .85-.729 1.539-1.627 1.539H7.627C6.728 17 6 16.311 6 15.461V8.538C6 7.688 6.728 7 7.627 7h8.746zm-9.764 4.038l.001 4.423c0 .532.455.962 1.017.962H10.2a.639.639 0 01-.03-.192v-2.5c0-.69.592-1.25 1.322-1.25h1.018c.73 0 1.322.56 1.322 1.25v2.5c0 .067-.01.131-.03.192h2.572c.561 0 1.017-.43 1.017-.961v-4.424H6.61zm5.9 2.02H11.49c-.393 0-.711.301-.711.673v2.5c0 .053.045.096.101.096h2.238a.099.099 0 00.101-.096v-2.5c0-.372-.318-.673-.712-.673zm-2.441-5.289h-1.83v2.885h1.83V7.769zm3.864 0h-1.83v2.885h1.83V7.769zm2.44 0h-.407v2.884h1.221V8.539c0-.424-.364-.769-.813-.769z" fill="#75BCDE"/></svg>