<svg width="24" height="24" fill="none" xmlns="http://www.w3.org/2000/svg"><circle cx="12" cy="12" r="12" fill="#E4E4E4"/><g clip-path="url(#clip0)" fill="#092E44"><path d="M9.853 8.542a.708.708 0 11-1.225-.71A3.676 3.676 0 0111.8 6a3.671 3.671 0 013.666 3.666 3.666 3.666 0 01-2.351 3.42.93.93 0 00-.607.886v.486a.707.707 0 01-1.413 0v-.486a2.326 2.326 0 011.515-2.205 2.252 2.252 0 001.437-2.1A2.242 2.242 0 0011.8 7.419a2.24 2.24 0 00-1.948 1.123z"/><path fill-rule="evenodd" clip-rule="evenodd" d="M11.803 16.06a.97.97 0 110 1.94.97.97 0 010-1.94z"/></g><defs><clipPath id="clip0"><path fill="#fff" transform="translate(6 6)" d="M0 0h12v12H0z"/></clipPath></defs></svg>