<svg width="12" height="11" fill="none" xmlns="http://www.w3.org/2000/svg"><path d="M11.606 4.92a1.345 1.345 0 00-.973-.41l-.486.045V2.733a1.693 1.693 0 00-.464-1.184L8.595.479a1.635 1.635 0 00-.556-.342A1.963 1.963 0 007.367 0H2.247a.452.452 0 00-.44.433v4.122l-.417-.023c-.37 0-.695.137-.973.41A1.3 1.3 0 000 5.9v2.96c0 .069.023.114.07.16a.212.212 0 00.162.068h1.621v1.139c0 .182.07.341.209.478a.672.672 0 00.486.205h6.927a.672.672 0 00.486-.205.534.534 0 00.186-.433l.023-1.184h1.621c.07 0 .116-.023.163-.068C12 8.95 12 8.95 12 8.882v-2.96c0-.365-.116-.73-.394-1.003zm-2.386 5.1H2.734V8.2l6.51-.046-.024 1.868zm0-4.554H2.734V.91H6L7.39.888v1.139c0 .182.07.342.208.478a.672.672 0 00.487.205h1.158L9.22 5.466zm1.737.752a.461.461 0 01-.324.136.461.461 0 01-.324-.136.446.446 0 01-.14-.32c0-.136.047-.25.14-.318a.461.461 0 01.324-.137c.116 0 .232.046.325.137a.446.446 0 01.139.319.446.446 0 01-.14.319z" fill="#00A0FF"/></svg>
