<svg width="16" height="18" fill="none" xmlns="http://www.w3.org/2000/svg"><path fill-rule="evenodd" clip-rule="evenodd" d="M15.73 4.688a1.811 1.811 0 00-.302-.42L11.665.563c-.33-.326-.91-.563-1.38-.563H4c-.944 0-1.714.758-1.714 1.688v5.625c0 .311.255.562.572.562a.566.566 0 00.571-.562V1.688c0-.311.255-.563.571-.563h5.144c.632 0 1.142.504 1.142 1.125v2.11a1.286 1.286 0 001.287 1.265h2.142c.633 0 1.143.504 1.143 1.125v9.563c0 .31-.255.563-.571.563H3.999a.567.567 0 01-.571-.563.566.566 0 00-.571-.562.566.566 0 00-.572.562c0 .93.768 1.686 1.711 1.688H14.29c.944-.002 1.71-.759 1.71-1.687V5.625c0-.3-.107-.642-.27-.937z" fill="#b8babb"/><path fill-rule="evenodd" clip-rule="evenodd" d="M11.746 10.344l-.969 3.107a.381.381 0 01-.142.195.379.379 0 01-.23.075h-.308a.38.38 0 01-.23-.075.375.375 0 01-.142-.195l-.964-3.107a.23.23 0 01-.01-.067c0-.042.015-.082.044-.12a.2.2 0 01.171-.088h.202a.374.374 0 01.362.275l.415 1.502c.036.126.086.316.15.572.063.255.116.454.16.595.001.01.007.014.016.014.007 0 .012-.005.012-.014.036-.129.087-.32.154-.576.067-.255.12-.452.16-.59l.405-1.503a.374.374 0 01.362-.274h.176a.2.2 0 01.172.087.19.19 0 01.044.12.229.229 0 01-.01.067zm-3.91 3.126c-.246.212-.578.318-.995.318-.412 0-.787-.117-1.126-.352a.242.242 0 01-.108-.187.086.086 0 01-.005-.025c0-.07.025-.133.074-.187l.054-.063a.266.266 0 01.196-.1h.034a.35.35 0 01.186.052c.237.154.476.23.714.23.19 0 .334-.036.435-.11a.36.36 0 00.152-.308c0-.12-.039-.208-.117-.268a2.012 2.012 0 00-.401-.209l-.034-.014-.5-.207a1.446 1.446 0 01-.536-.376.885.885 0 01-.212-.607.94.94 0 01.362-.754c.241-.2.547-.301.92-.301.345 0 .658.095.94.284a.244.244 0 01.112.193v.024c0 .07-.025.134-.074.188l-.01.014a.282.282 0 01-.195.106.345.345 0 01-.225-.043 1.122 1.122 0 00-.548-.14.676.676 0 00-.392.102.325.325 0 00-.147.284c0 .06.013.113.04.158a.364.364 0 00.13.125 1.386 1.386 0 00.378.179l.034.014.485.203c.245.1.431.227.559.383.127.156.19.358.19.609a.996.996 0 01-.37.785zm-3.2-.02c-.273.226-.6.338-.978.338A1.75 1.75 0 013 13.665a1.583 1.583 0 01-.539-.356 1.642 1.642 0 01-.366-.593 2.282 2.282 0 01-.135-.807c0-.291.045-.56.137-.801.091-.243.216-.444.374-.605a1.66 1.66 0 01.55-.371c.21-.086.431-.13.666-.13.313 0 .602.095.866.284a.239.239 0 01.108.213c0 .07-.025.134-.073.192l-.02.024a.275.275 0 01-.196.096h-.029a.338.338 0 01-.186-.053.872.872 0 00-.456-.13.871.871 0 00-.707.34c-.184.226-.276.532-.276.917 0 .396.087.706.262.933.174.226.41.339.707.339a.962.962 0 00.549-.173.321.321 0 01.19-.058h.02a.255.255 0 01.19.091l.02.02a.294.294 0 01.078.202c0 .09-.032.16-.098.212zm9.079 1.175V9a.568.568 0 00-.572-.563H.571A.569.569 0 000 9v5.625c0 .31.257.563.571.563h12.572a.568.568 0 00.572-.563z" fill="#b8babb"/></svg>
