<svg width="12" height="12" fill="none" xmlns="http://www.w3.org/2000/svg"><path d="M2.483.701h4.045c.274 0 .497.211.497.471a.479.479 0 01-.408.463l-.089.008H2.483c-.774 0-1.41.56-1.483 1.276l-.007.136v6.591c0 .734.591 1.337 1.347 1.406l.143.006h6.953c.774 0 1.41-.56 1.483-1.276l.007-.136V4.424c0-.26.222-.471.496-.471a.49.49 0 01.489.386l.008.085v5.222c0 1.248-1.025 2.27-2.32 2.349L9.436 12H2.483C1.167 12 .09 11.029.005 9.8L0 9.647v-6.59C0 1.806 1.025.785 2.32.705L2.483.7h4.045-4.045zM11.16.355c.435.319.67.826.82 1.54a.9.9 0 01-.133.687l-.075.097L7.916 7.1a.986.986 0 01-.317.24l-.125.05-2.102.685c-.733.239-1.443-.37-1.3-1.065l.027-.1.58-1.801a.919.919 0 01.108-.225l.076-.1L8.72.363c.166-.19.403-.31.66-.336.749-.076 1.332-.001 1.781.328zm-.607.745C10.357.957 10 .91 9.485.963l-3.856 4.42-.58 1.8 2.102-.685 3.856-4.419c-.108-.51-.26-.836-.454-.98z" fill="#00A0FF"/></svg>