<svg width="14" height="14" fill="none" xmlns="http://www.w3.org/2000/svg"><path d="M13.352 9.889V12.7a.652.652 0 01-.02.157.604.604 0 01-.588.483H1.252a.603.603 0 01-.596-.536c-.008-.036-.008-.068-.008-.108V9.884A.602.602 0 011.67 9.46c.108.109.177.26.177.424v2.252h10.308V9.884a.6.6 0 011.024-.424.631.631 0 01.172.429z" fill="#00A0FF"/><path d="M10.46 7.072L7.512 10.02c-.004.008-.012.012-.016.016a.695.695 0 01-.389.197c-.011 0-.023.003-.036.003-.024.004-.048.004-.072.004l-.068-.004-.036-.003a.683.683 0 01-.404-.213L3.542 7.072a.699.699 0 01-.203-.496c0-.18.068-.36.203-.496a.705.705 0 01.992 0l1.772 1.77.002-6.49c0-.385.316-.7.7-.7a.691.691 0 01.7.7v6.491L9.48 6.08a.705.705 0 01.992 0c.26.276.26.72-.012.992z" fill="#00A0FF"/></svg>