<svg width="13" height="13" fill="none" xmlns="http://www.w3.org/2000/svg"><path fill-rule="evenodd" clip-rule="evenodd" d="M5.976.213l-3.013 3.02a.74.74 0 00-.016 1.018.72.72 0 001.015 0L5.78 2.43v6.664c0 .197.081.378.212.51a.717.717 0 00.508.213c.393 0 .72-.329.72-.723V2.43l1.77 1.821a.72.72 0 001.228-.509.71.71 0 00-.213-.508L6.99.214 6.975.196A.693.693 0 006.582 0h-.197a.691.691 0 00-.393.197s-.016 0-.016.016zM13 12.343v-2.89a.675.675 0 00-.18-.459.567.567 0 00-.426-.18.623.623 0 00-.622.623v2.298H1.228V9.421a.597.597 0 00-.18-.427.567.567 0 00-.426-.18.623.623 0 00-.622.623v2.889c0 .05 0 .082.016.115a.62.62 0 00.606.558h11.756a.63.63 0 00.606-.492c0-.023.003-.046.007-.07a.589.589 0 00.009-.095z" fill="#fff"/></svg>