<svg width="8" height="8" fill="none" xmlns="http://www.w3.org/2000/svg"><path fill-rule="evenodd" clip-rule="evenodd" d="M.003 3.928a.796.796 0 01.169-.426L2.733.287a.697.697 0 01.489-.284.68.68 0 01.529.18.79.79 0 01.248.536.802.802 0 01-.185.563L1.648 4l2.166 2.718c.13.153.196.356.185.563a.789.789 0 01-.248.535.682.682 0 01-.53.18.697.697 0 01-.488-.283L.172 4.498a.805.805 0 01-.169-.57z" fill="#6ab9e7"/><path fill-rule="evenodd" clip-rule="evenodd" d="M4.003 3.928a.796.796 0 01.169-.426L6.733.287a.697.697 0 01.489-.284.68.68 0 01.529.18.79.79 0 01.248.536.802.802 0 01-.185.563L5.648 4l2.166 2.718c.13.153.196.356.185.563a.789.789 0 01-.248.535.682.682 0 01-.53.18.697.697 0 01-.488-.283L4.172 4.498a.805.805 0 01-.169-.57z" fill="#6ab9e7"/></svg>