<svg width="12" height="10" fill="none" xmlns="http://www.w3.org/2000/svg"><path d="M10.373 0C11.272 0 12 .689 12 1.538v6.924c0 .85-.729 1.538-1.627 1.538H1.627C.728 10 0 9.311 0 8.462V1.538C0 .688.728 0 1.627 0h8.746zM.609 4.038L.61 8.462c0 .53.455.961 1.017.961H4.2a.64.64 0 01-.03-.192v-2.5c0-.69.592-1.25 1.323-1.25h1.016c.73 0 1.323.56 1.323 1.25v2.5a.64.64 0 01-.03.192h2.572c.562 0 1.017-.43 1.017-.961V4.038H.61zm5.9 2.02H5.491c-.394 0-.712.301-.712.673v2.5c0 .053.045.096.101.096h2.24a.099.099 0 00.101-.096v-2.5c0-.372-.318-.673-.712-.673zM4.067.769h-1.83v2.885h1.83V.769zm3.864 0h-1.83v2.885h1.83V.769zm2.44 0h-.407v2.884h1.221V1.539c0-.424-.364-.769-.813-.769z" fill="#75BCDE"/></svg>