<svg width="16" height="15" fill="none" xmlns="http://www.w3.org/2000/svg"><path d="M13.625.938c1.036 0 1.875.904 1.875 2.019v9.086c0 1.116-.84 2.02-1.875 2.02H2.375c-1.036 0-1.875-.905-1.875-2.02V2.957c0-1.115.84-2.02 1.875-2.02h11.25zM14.5 3.75h-13v8.352c0 .565.416 1.023.929 1.023H13.57c.513 0 .929-.458.929-1.023V3.75zM3.833 10.313c.369 0 .667.28.667.624v.626c0 .345-.298.624-.667.624h-.666c-.369 0-.667-.28-.667-.624v-.626c0-.345.298-.624.667-.624h.666zm3 0c.369 0 .667.28.667.624v.626c0 .345-.298.624-.667.624h-.666c-.369 0-.667-.28-.667-.624v-.626c0-.345.298-.624.667-.624h.666zm3 0c.368 0 .667.28.667.624v.626c0 .345-.299.624-.667.624h-.666c-.369 0-.667-.28-.667-.624v-.626c0-.345.298-.624.667-.624h.666zm-6-2.813c.369 0 .667.28.667.625v.625c0 .345-.298.625-.667.625h-.666c-.369 0-.667-.28-.667-.625v-.625c0-.345.298-.625.667-.625h.666zm3 0c.369 0 .667.28.667.625v.625c0 .345-.298.625-.667.625h-.666c-.369 0-.667-.28-.667-.625v-.625c0-.345.298-.625.667-.625h.666zm3 0c.368 0 .667.28.667.625v.625c0 .345-.299.625-.667.625h-.666c-.369 0-.667-.28-.667-.625v-.625c0-.345.298-.625.667-.625h.666zm3 0c.368 0 .667.28.667.625v.625c0 .345-.299.625-.667.625h-.666c-.368 0-.667-.28-.667-.625v-.625c0-.345.299-.625.667-.625h.666zm-6-2.813c.369 0 .667.28.667.625v.625c0 .346-.298.625-.667.625h-.666c-.369 0-.667-.28-.667-.625v-.625c0-.345.298-.625.667-.625h.666zm3 0c.368 0 .667.28.667.625v.625c0 .346-.299.625-.667.625h-.666c-.369 0-.667-.28-.667-.625v-.625c0-.345.298-.625.667-.625h.666zm3 0c.368 0 .667.28.667.625v.625c0 .346-.299.625-.667.625h-.666c-.368 0-.667-.28-.667-.625v-.625c0-.345.299-.625.667-.625h.666z" fill="#4E5D78"/></svg>