<svg width="12" height="17" fill="none" xmlns="http://www.w3.org/2000/svg"><path d="M4.227 16.247l1.77-1.87 1.774 1.87a.251.251 0 00.272.06.247.247 0 00.156-.23v-4.505l-.76-.2-.917.91a.754.754 0 01-.521.216.749.749 0 01-.515-.208l-.928-.918-.756.2v4.504a.247.247 0 00.425.17z" fill="#E3A807"/><path d="M11.93 5.827l-1.106-1.118.398-1.523a.247.247 0 00-.173-.302L9.53 2.472 9.117.952A.247.247 0 008.816.78l-1.524.398L6.175.072a.246.246 0 00-.349 0L4.708 1.178 3.185.78a.245.245 0 00-.3.173L2.47 2.472l-1.52.412a.247.247 0 00-.173.302l.398 1.523L.071 5.827a.25.25 0 000 .349l1.105 1.117-.398 1.521a.245.245 0 00.173.302l1.519.416.416 1.516c.035.132.168.21.299.176l1.523-.4 1.118 1.108c.05.047.111.072.176.072a.252.252 0 00.173-.072l1.117-1.109 1.524.4a.245.245 0 00.299-.175l.416-1.516 1.519-.416a.245.245 0 00.173-.302l-.398-1.52 1.105-1.118a.25.25 0 000-.349zM8.564 5.4L7.462 6.475l.26 1.519a.25.25 0 01-.098.242.25.25 0 01-.26.018L6 7.537l-1.364.717a.248.248 0 01-.358-.26l.26-1.518L3.435 5.4a.247.247 0 01.137-.422l1.524-.222.682-1.38c.084-.17.36-.17.444 0l.681 1.38 1.525.222a.246.246 0 01.137.422z" fill="#E3A807"/></svg>