<svg width="8" height="8" fill="none" xmlns="http://www.w3.org/2000/svg"><path fill-rule="evenodd" clip-rule="evenodd" d="M7.997 4.072a.796.796 0 01-.169.426L5.267 7.713a.697.697 0 01-.489.284.68.68 0 01-.529-.18.79.79 0 01-.248-.536.802.802 0 01.185-.563L6.352 4 4.186 1.282A.802.802 0 014.001.72.789.789 0 014.25.184a.682.682 0 01.53-.18.69.69 0 01.488.283l2.561 3.215a.805.805 0 01.169.57z" fill="#6ab9e7"/><path fill-rule="evenodd" clip-rule="evenodd" d="M3.997 4.072a.796.796 0 01-.169.426L1.267 7.713a.697.697 0 01-.489.284.68.68 0 01-.529-.18.79.79 0 01-.248-.536.802.802 0 01.185-.563L2.352 4 .186 1.282A.802.802 0 01.001.72.789.789 0 01.25.184a.682.682 0 01.53-.18.69.69 0 01.488.283l2.561 3.215a.805.805 0 01.169.57z" fill="#6ab9e7"/></svg>