<svg width="32" height="29" fill="none" xmlns="http://www.w3.org/2000/svg"><path d="M31.644 23.959L18.099 1.279c-.96-1.6-3.27-1.742-4.266-.179L.397 23.924c-1.067 1.67.142 4.23 2.133 4.23h26.946c1.954 0 3.163-2.525 2.168-4.196zm-15.712.355c-.96 0-1.742-.782-1.742-1.741 0-.96.782-1.742 1.742-1.742s1.741.782 1.741 1.742-.782 1.741-1.741 1.741zm1.848-6.399c0 .96-.818 1.742-1.777 1.742-.96 0-1.778-.782-1.778-1.742v-9.1c0-.959.818-1.74 1.778-1.74.959 0 1.777.781 1.777 1.74v9.1z" fill="#F60856"/></svg>