<svg width="24" height="24" fill="none" xmlns="http://www.w3.org/2000/svg"><path fill-rule="evenodd" clip-rule="evenodd" d="M15.138 18.03c1.173.45 5.302 1.368 5.775 1.486.511.128 1.677.513 2.14 1.619.348.829.28 1.77.28 2.066H.02c.024 0-.115-1.046.121-2.066.139-.598.723-1.088 1.752-1.468l.322-.111a1.7 1.7 0 01.245-.06c2.754-.454 4.7-.935 5.836-1.444 1.007.556 2.171.82 3.33.82 1.452 0 2.591-.296 3.513-.842zM8.332 6.656c.041.046.09.095.147.149.685.639 1.741 1.372 3.095 1.972 1.13.501 2.207.703 4.35.944.726.082 1.121.086 1.577.036l.058-.007c.13-.015.185-.02.253-.027.25-.021.512-.06.775-.112.304.257.426.741.09 1.3-.423.707-1.355 1.143-1.985 1.171-.362 1.312-.825 2.205-1.533 3.25-.802 1.184-1.854 1.825-3.769 1.825-1.455 0-2.907-.596-3.698-1.811-.536-.825-.985-1.877-1.425-3.3-.597-.124-1.331-.53-1.694-1.135-.468-.781-.045-1.416.525-1.494.139-.019.304-.01.482.024l-.018-.107C6.7 9.057 7.782 8.037 8.276 6.81l.056-.154zM14.945.708c1.729.762 2.781 2.028 3.578 4.296.224.637.934 2.099.977 2.222.075.21.075.262.049.302-.036.055-1.168.426-1.885.487-.09.008-.166.017-.299.032l-.05.006c-.326.035-.595.033-1.2-.035-1.964-.222-2.933-.403-3.846-.808-1.166-.517-2.067-1.142-2.62-1.659-1.004-.936-1.597-1.95-1.597-3.657 0 .022.192-.378.48-.709C9.01.636 9.682.251 10.584.117c1.845-.275 2.884-.06 4.361.59zM6.687 2.204c-.03.217.094.94.143 1.197.027.144.3.767.386 1.035.086.268.086.162.126.463.146 1.113-1.545 2.795-2.38 2.795-.246 0-.52-.025-.688-.024.06-.25.152-.616.14-.569.1-.415.167-.79.207-1.199.114-1.165.901-2.696 1.289-3.158.232-.277.777-.54.777-.54z" fill="#4E5D78"/></svg>