<svg width="28" height="16" fill="none" xmlns="http://www.w3.org/2000/svg"><path d="M2.293 0C1.395 0 .667.549.667 1.226c0 .677.728 1.226 1.626 1.226h23.414c.898 0 1.626-.55 1.626-1.226C27.333.549 26.605 0 25.707 0H2.293zm0 6.62c-.898 0-1.626.548-1.626 1.225s.728 1.226 1.626 1.226h23.414c.898 0 1.626-.549 1.626-1.226 0-.677-.728-1.226-1.626-1.226H2.293zm0 6.619c-.898 0-1.626.548-1.626 1.226 0 .677.728 1.225 1.626 1.225h23.414c.898 0 1.626-.548 1.626-1.225 0-.678-.728-1.226-1.626-1.226H2.293z" fill="#fff"/></svg>